<svg width="17" height="17" viewBox="0 0 17 17" fill="none" xmlns="http://www.w3.org/2000/svg">
<path d="M3.5 7.83848C3.16863 7.83848 2.9 8.10711 2.9 8.43848C2.9 8.76985 3.16863 9.03848 3.5 9.03848V7.83848ZM13.5 9.03848C13.8314 9.03848 14.1 8.76985 14.1 8.43848C14.1 8.10711 13.8314 7.83848 13.5 7.83848V9.03848ZM3.5 9.03848H13.5V7.83848H3.5V9.03848Z" fill="#4F00C1"/>
<path d="M9.1 3.43848C9.1 3.10711 8.83137 2.83848 8.5 2.83848C8.16863 2.83848 7.9 3.10711 7.9 3.43848L9.1 3.43848ZM7.9 13.4385C7.9 13.7698 8.16863 14.0385 8.5 14.0385C8.83137 14.0385 9.1 13.7698 9.1 13.4385L7.9 13.4385ZM7.9 3.43848L7.9 13.4385L9.1 13.4385L9.1 3.43848L7.9 3.43848Z" fill="#4F00C1"/>
</svg>
