<svg width="25" height="25" viewBox="0 0 25 25" fill="none" xmlns="http://www.w3.org/2000/svg">
<circle cx="8.88046" cy="9.75937" r="2.8619" stroke="#5D5D5D" stroke-width="1.2"/>
<circle cx="17.8676" cy="7.1362" r="2.28952" stroke="#5D5D5D" stroke-width="1.2"/>
<path d="M1.41172 20.0627C1.41172 20.394 1.68035 20.6627 2.01172 20.6627C2.34309 20.6627 2.61172 20.394 2.61172 20.0627H1.41172ZM15.1489 20.0627C15.1489 20.394 15.4175 20.6627 15.7489 20.6627C16.0802 20.6627 16.3489 20.394 16.3489 20.0627H15.1489ZM2.61172 20.0627V19.3389H1.41172V20.0627H2.61172ZM7.01172 14.9389H10.7489V13.7389H7.01172V14.9389ZM15.1489 19.3389V20.0627H16.3489V19.3389H15.1489ZM10.7489 14.9389C13.1789 14.9389 15.1489 16.9088 15.1489 19.3389H16.3489C16.3489 16.2461 13.8417 13.7389 10.7489 13.7389V14.9389ZM2.61172 19.3389C2.61172 16.9088 4.58167 14.9389 7.01172 14.9389V13.7389C3.91892 13.7389 1.41172 16.2461 1.41172 19.3389H2.61172Z" fill="#5D5D5D"/>
<path d="M13.2891 14.9108V14.4766C13.2891 12.8197 14.6322 11.4766 16.2891 11.4766H17.8681H19.4472C21.104 11.4766 22.4472 12.8197 22.4472 14.4766V14.9108" stroke="#5D5D5D" stroke-width="1.2" stroke-linecap="round" stroke-linejoin="round"/>
</svg>
