<svg width="25" height="25" viewBox="0 0 25 25" fill="none" xmlns="http://www.w3.org/2000/svg">
<path d="M16.4117 10.3467C16.4117 10.6781 16.6803 10.9467 17.0117 10.9467C17.3431 10.9467 17.6117 10.6781 17.6117 10.3467H16.4117ZM14.0117 20.9467C14.3431 20.9467 14.6117 20.6781 14.6117 20.3467C14.6117 20.0153 14.3431 19.7467 14.0117 19.7467V20.9467ZM16.6117 4.24668H5.41172V5.44668H16.6117V4.24668ZM5.41172 20.9467H14.0117V19.7467H5.41172V20.9467ZM4.41172 5.24668V8.34668H5.61172V5.24668H4.41172ZM4.41172 8.34668V19.9467H5.61172V8.34668H4.41172ZM17.6117 10.3467V8.34668H16.4117V10.3467H17.6117ZM17.6117 8.34668V5.24668H16.4117V8.34668H17.6117ZM5.01172 8.94668H17.0117V7.74668H5.01172V8.94668ZM5.41172 19.7467C5.52217 19.7467 5.61172 19.8362 5.61172 19.9467H4.41172C4.41172 20.499 4.85943 20.9467 5.41172 20.9467V19.7467ZM5.41172 4.24668C4.85943 4.24668 4.41172 4.6944 4.41172 5.24668H5.61172C5.61172 5.35714 5.52218 5.44668 5.41172 5.44668V4.24668ZM16.6117 5.44668C16.5013 5.44668 16.4117 5.35714 16.4117 5.24668H17.6117C17.6117 4.6944 17.164 4.24668 16.6117 4.24668V5.44668Z" fill="#5D5D5D"/>
<path d="M14.0117 12.1967C14.3431 12.1967 14.6117 11.9281 14.6117 11.5967C14.6117 11.2653 14.3431 10.9967 14.0117 10.9967L14.0117 12.1967ZM13.5117 10.9967C13.1803 10.9967 12.9117 11.2653 12.9117 11.5967C12.9117 11.9281 13.1803 12.1967 13.5117 12.1967L13.5117 10.9967ZM14.0117 10.9967L13.5117 10.9967L13.5117 12.1967L14.0117 12.1967L14.0117 10.9967Z" fill="#5D5D5D"/>
<path d="M11.0117 12.1967C11.3431 12.1967 11.6117 11.9281 11.6117 11.5967C11.6117 11.2653 11.3431 10.9967 11.0117 10.9967L11.0117 12.1967ZM10.5117 10.9967C10.1803 10.9967 9.91172 11.2653 9.91172 11.5967C9.91172 11.9281 10.1803 12.1967 10.5117 12.1967L10.5117 10.9967ZM11.0117 10.9967L10.5117 10.9967L10.5117 12.1967L11.0117 12.1967L11.0117 10.9967Z" fill="#5D5D5D"/>
<path d="M8.01172 12.1967C8.34309 12.1967 8.61172 11.9281 8.61172 11.5967C8.61172 11.2653 8.34309 10.9967 8.01172 10.9967L8.01172 12.1967ZM7.51172 10.9967C7.18035 10.9967 6.91172 11.2653 6.91172 11.5967C6.91172 11.9281 7.18035 12.1967 7.51172 12.1967L7.51172 10.9967ZM8.01172 10.9967L7.51172 10.9967L7.51172 12.1967L8.01172 12.1967L8.01172 10.9967Z" fill="#5D5D5D"/>
<path d="M14.0117 15.1967C14.3431 15.1967 14.6117 14.9281 14.6117 14.5967C14.6117 14.2653 14.3431 13.9967 14.0117 13.9967L14.0117 15.1967ZM13.5117 13.9967C13.1803 13.9967 12.9117 14.2653 12.9117 14.5967C12.9117 14.9281 13.1803 15.1967 13.5117 15.1967L13.5117 13.9967ZM14.0117 13.9967L13.5117 13.9967L13.5117 15.1967L14.0117 15.1967L14.0117 13.9967Z" fill="#5D5D5D"/>
<path d="M11.0117 15.1967C11.3431 15.1967 11.6117 14.9281 11.6117 14.5967C11.6117 14.2653 11.3431 13.9967 11.0117 13.9967L11.0117 15.1967ZM10.5117 13.9967C10.1803 13.9967 9.91172 14.2653 9.91172 14.5967C9.91172 14.9281 10.1803 15.1967 10.5117 15.1967L10.5117 13.9967ZM11.0117 13.9967L10.5117 13.9967L10.5117 15.1967L11.0117 15.1967L11.0117 13.9967Z" fill="#5D5D5D"/>
<path d="M8.01172 15.1967C8.34309 15.1967 8.61172 14.9281 8.61172 14.5967C8.61172 14.2653 8.34309 13.9967 8.01172 13.9967L8.01172 15.1967ZM7.51172 13.9967C7.18035 13.9967 6.91172 14.2653 6.91172 14.5967C6.91172 14.9281 7.18035 15.1967 7.51172 15.1967L7.51172 13.9967ZM8.01172 13.9967L7.51172 13.9967L7.51172 15.1967L8.01172 15.1967L8.01172 13.9967Z" fill="#5D5D5D"/>
<path d="M14.5117 17.9467C14.8431 17.9467 15.1117 17.6781 15.1117 17.3467C15.1117 17.0153 14.8431 16.7467 14.5117 16.7467V17.9467ZM10.5117 16.7467C10.1803 16.7467 9.91172 17.0153 9.91172 17.3467C9.91172 17.6781 10.1803 17.9467 10.5117 17.9467V16.7467ZM14.5117 16.7467H10.5117V17.9467H14.5117V16.7467Z" fill="#5D5D5D"/>
<path d="M8.01172 18.1967C8.34309 18.1967 8.61172 17.9281 8.61172 17.5967C8.61172 17.2653 8.34309 16.9967 8.01172 16.9967L8.01172 18.1967ZM7.51172 16.9967C7.18035 16.9967 6.91172 17.2653 6.91172 17.5967C6.91172 17.9281 7.18035 18.1967 7.51172 18.1967L7.51172 16.9967ZM8.01172 16.9967L7.51172 16.9967L7.51172 18.1967L8.01172 18.1967L8.01172 16.9967Z" fill="#5D5D5D"/>
<path d="M20.3407 14.6469C20.6583 14.7414 20.9924 14.5605 21.0868 14.2428C21.1813 13.9252 21.0004 13.5912 20.6828 13.4967L20.3407 14.6469ZM16.7313 19.7177C16.423 19.5964 16.0747 19.748 15.9534 20.0564C15.8321 20.3648 15.9837 20.7131 16.2921 20.8344L16.7313 19.7177ZM19.1731 12.3467C19.1731 12.0153 18.9045 11.7467 18.5731 11.7467C18.2417 11.7467 17.9731 12.0153 17.9731 12.3467H19.1731ZM17.9731 22.3467C17.9731 22.6781 18.2417 22.9467 18.5731 22.9467C18.9045 22.9467 19.1731 22.6781 19.1731 22.3467H17.9731ZM16.3064 15.3739C16.3064 16.0694 16.668 16.5538 17.1015 16.8908C17.5089 17.2074 18.0343 17.4361 18.4649 17.6279C18.933 17.8365 19.3081 18.009 19.5752 18.2212C19.8158 18.4124 19.9117 18.5893 19.9117 18.8207H21.1117C21.1117 18.1202 20.757 17.6275 20.3216 17.2816C19.9127 16.9567 19.3865 16.7248 18.9532 16.5318C18.4825 16.3221 18.1066 16.1521 17.838 15.9433C17.5955 15.7548 17.5064 15.587 17.5064 15.3739H16.3064ZM20.6828 13.4967C20.1206 13.3295 19.3013 13.1767 18.5287 13.234L18.6175 14.4307C19.1984 14.3876 19.8651 14.5054 20.3407 14.6469L20.6828 13.4967ZM18.5287 13.234C18.0239 13.2715 17.4714 13.4036 17.0339 13.749C16.5682 14.1168 16.3064 14.6681 16.3064 15.3739H17.5064C17.5064 14.9917 17.6327 14.8053 17.7776 14.6908C17.9509 14.554 18.2317 14.4594 18.6175 14.4307L18.5287 13.234ZM19.1731 13.8324V12.3467H17.9731V13.8324H19.1731ZM19.9117 18.8207C19.9117 19.1367 19.7876 19.3806 19.5665 19.5706C19.3329 19.7713 18.9711 19.9251 18.5054 19.978L18.6408 21.1704C19.282 21.0975 19.8895 20.8752 20.3485 20.4808C20.8199 20.0758 21.1117 19.5059 21.1117 18.8207H19.9117ZM18.5054 19.978C17.9775 20.038 17.3543 19.9627 16.7313 19.7177L16.2921 20.8344C17.0846 21.1461 17.9047 21.2539 18.6408 21.1704L18.5054 19.978ZM17.9731 20.5742V22.3467H19.1731V20.5742H17.9731Z" fill="#5D5D5D"/>
</svg>
