<svg width="16" height="15" viewBox="0 0 16 15" fill="none" xmlns="http://www.w3.org/2000/svg">
<path d="M2.07235 1.99827L1.65604 1.5662L2.07235 1.99827ZM4.44341 10.3751L4.85972 9.94302L4.44341 10.3751ZM13.9276 1.99827L13.5113 2.43034L13.9276 1.99827ZM11.5566 10.3751L11.1403 9.94302L11.1403 9.94303L11.5566 10.3751ZM7.52948 3.42593L7.06138 3.80127L7.52948 3.42593ZM7.6532 13.4678L7.23689 13.8999L7.6532 13.4678ZM8.34692 13.4677L8.76324 13.8998L8.34692 13.4677ZM7.99759 3.0506C7.29545 2.17493 6.38256 1.20285 5.31044 0.744691C4.75923 0.509138 4.15124 0.402835 3.50974 0.527037C2.86996 0.650907 2.25023 0.993689 1.65604 1.5662L2.48866 2.43034C2.95423 1.98176 3.37282 1.77583 3.73784 1.70516C4.10115 1.63482 4.46443 1.68814 4.83888 1.84816C5.61807 2.18113 6.37398 2.94399 7.06138 3.80127L7.99759 3.0506ZM1.65604 1.5662C0.915898 2.27935 0.526872 3.09714 0.426512 3.96411C0.327632 4.8183 0.513244 5.67865 0.848005 6.48973C1.51304 8.10105 2.81902 9.64316 4.0271 10.8072L4.85972 9.94302C3.69671 8.82244 2.52903 7.41729 1.95724 6.03192C1.67359 5.34466 1.55 4.69431 1.61855 4.1021C1.68563 3.52266 1.94067 2.95835 2.48866 2.43034L1.65604 1.5662ZM4.0271 10.8072C4.85513 11.605 6.34581 13.0413 7.23689 13.8999L8.06952 13.0358C7.17844 12.1772 5.68775 10.7408 4.85972 9.94302L4.0271 10.8072ZM8.90162 3.72902C9.47122 2.9168 10.2417 2.16847 11.0547 1.84442C11.4511 1.68645 11.8455 1.63356 12.2359 1.70787C12.6252 1.78198 13.0555 1.99117 13.5113 2.43034L14.344 1.5662C13.7485 0.992415 13.1142 0.653527 12.4603 0.529041C11.8074 0.404752 11.1799 0.502736 10.6105 0.729695C9.4919 1.17551 8.55504 2.13326 7.91914 3.04001L8.90162 3.72902ZM13.5113 2.43034C14.0593 2.95835 14.3144 3.52266 14.3814 4.1021C14.45 4.69431 14.3264 5.34466 14.0428 6.03192C13.471 7.41729 12.3033 8.82244 11.1403 9.94302L11.9729 10.8072C13.181 9.64316 14.487 8.10105 15.152 6.48973C15.4868 5.67865 15.6724 4.8183 15.5735 3.96411C15.4731 3.09714 15.0841 2.27935 14.344 1.5662L13.5113 2.43034ZM11.1403 9.94303L7.93061 13.0356L8.76324 13.8998L11.9729 10.8072L11.1403 9.94303ZM7.06138 3.80127C7.55449 4.41626 8.4792 4.33136 8.90162 3.72902L7.91914 3.04001C7.92863 3.02648 7.94072 3.02352 7.94582 3.02326C7.9494 3.02307 7.9568 3.02341 7.96715 3.02779C7.97874 3.03269 7.98994 3.04106 7.99759 3.0506L7.06138 3.80127ZM7.23689 13.8999C7.66313 14.3106 8.3374 14.3101 8.76324 13.8998L7.93061 13.0356C7.96914 12.9985 8.03058 12.9982 8.06952 13.0358L7.23689 13.8999Z" fill="#4F00C1"/>
</svg>
