<svg width="25" height="25" viewBox="0 0 25 25" fill="none" xmlns="http://www.w3.org/2000/svg">
<circle cx="8.51172" cy="10.3467" r="2.5" stroke="#5D5D5D" stroke-width="1.2"/>
<path d="M3.01172 19.8467V18.8467C3.01172 16.6375 4.80258 14.8467 7.01172 14.8467H10.0117C12.2209 14.8467 14.0117 16.6375 14.0117 18.8467V19.8467" stroke="#5D5D5D" stroke-width="1.2" stroke-linecap="round" stroke-linejoin="round"/>
<path d="M11.5117 6.24668C11.1803 6.24668 10.9117 6.51531 10.9117 6.84668C10.9117 7.17805 11.1803 7.44668 11.5117 7.44668V6.24668ZM17.2617 18.2467C16.9303 18.2467 16.6617 18.5153 16.6617 18.8467C16.6617 19.1781 16.9303 19.4467 17.2617 19.4467V18.2467ZM11.5117 7.44668H20.8117V6.24668H11.5117V7.44668ZM20.4117 7.04668V18.6467H21.6117V7.04668H20.4117ZM20.8117 18.2467H17.2617V19.4467H20.8117V18.2467ZM20.4117 18.6467C20.4117 18.4258 20.5908 18.2467 20.8117 18.2467V19.4467C21.2535 19.4467 21.6117 19.0885 21.6117 18.6467H20.4117ZM20.8117 7.44668C20.5908 7.44668 20.4117 7.26759 20.4117 7.04668H21.6117C21.6117 6.60485 21.2535 6.24668 20.8117 6.24668V7.44668Z" fill="#5D5D5D"/>
<path d="M13.0117 9.84668H17.2117M13.0117 12.3467H19.0117M14.8117 14.8467H16.6117" stroke="#5D5D5D" stroke-width="1.2" stroke-linecap="round"/>
</svg>
