<svg width="8" height="13" viewBox="0 0 8 13" fill="none" xmlns="http://www.w3.org/2000/svg">
<path d="M6.92426 1.93794C7.15858 1.70362 7.15858 1.32372 6.92426 1.08941C6.68995 0.855093 6.31005 0.855093 6.07574 1.08941L6.92426 1.93794ZM1.5 6.51367L1.07574 6.08941L0.651471 6.51367L1.07574 6.93794L1.5 6.51367ZM6.07573 11.9379C6.31005 12.1723 6.68995 12.1723 6.92426 11.9379C7.15858 11.7036 7.15858 11.3237 6.92426 11.0894L6.07573 11.9379ZM6.07574 1.08941L1.07574 6.08941L1.92426 6.93794L6.92426 1.93794L6.07574 1.08941ZM1.07574 6.93794L6.07573 11.9379L6.92426 11.0894L1.92426 6.08941L1.07574 6.93794Z" fill="#5D5D5D"/>
</svg>
