<svg width="25" height="25" viewBox="0 0 25 25" fill="none" xmlns="http://www.w3.org/2000/svg">
<path d="M16.5381 8.77125C16.7416 9.03281 17.1185 9.07992 17.3801 8.87647C17.6417 8.67302 17.6888 8.29606 17.4853 8.03449L16.5381 8.77125ZM7.47697 17.6422C7.26773 17.3853 6.88981 17.3466 6.63285 17.5558C6.3759 17.7651 6.33722 18.143 6.54646 18.3999L7.47697 17.6422ZM12.0117 6.35678L12.0449 6.95586L12.0117 6.35678ZM12.6117 3.84668C12.6117 3.51531 12.3431 3.24668 12.0117 3.24668C11.6803 3.24668 11.4117 3.51531 11.4117 3.84668H12.6117ZM12.6117 20.3467C12.6117 20.0153 12.3431 19.7467 12.0117 19.7467C11.6803 19.7467 11.4117 20.0153 11.4117 20.3467H12.6117ZM11.4117 22.3467C11.4117 22.6781 11.6803 22.9467 12.0117 22.9467C12.3431 22.9467 12.6117 22.6781 12.6117 22.3467H11.4117ZM7.41172 9.68534C7.41172 10.417 7.57326 11.0321 7.88841 11.5407C8.20274 12.048 8.64362 12.4071 9.13451 12.6702C10.0812 13.1777 11.3201 13.3746 12.4036 13.5731C13.5493 13.783 14.5532 13.9973 15.2804 14.4661C15.6295 14.691 15.9036 14.9691 16.0945 15.3304C16.2864 15.6937 16.4117 16.1746 16.4117 16.8297H17.6117C17.6117 16.0193 17.4558 15.3382 17.1555 14.7698C16.8542 14.1995 16.4252 13.7763 15.9305 13.4574C14.9703 12.8385 13.7241 12.595 12.6198 12.3927C11.4534 12.1791 10.4422 12.0097 9.70143 11.6126C9.34857 11.4234 9.08632 11.1957 8.90847 10.9087C8.73143 10.6229 8.61172 10.2361 8.61172 9.68534H7.41172ZM16.4117 16.8297C16.4117 18.2614 15.0875 19.3887 13.0969 19.6794C11.1498 19.9637 8.87881 19.3637 7.47697 17.6422L6.54646 18.3999C8.26963 20.516 10.9986 21.1985 13.2703 20.8668C15.4985 20.5414 17.6117 19.1542 17.6117 16.8297H16.4117ZM17.4853 8.03449C16.1767 6.35211 13.9485 5.64856 11.9785 5.7577L12.0449 6.95586C13.734 6.86228 15.5329 7.47888 16.5381 8.77125L17.4853 8.03449ZM11.9785 5.7577C10.8279 5.82144 9.70387 6.16411 8.85184 6.81262C7.98405 7.47312 7.41172 8.44547 7.41172 9.68534H8.61172C8.61172 8.8582 8.9774 8.2251 9.57862 7.76749C10.1956 7.29789 11.0716 7.00978 12.0449 6.95586L11.9785 5.7577ZM12.6117 6.35678V3.84668H11.4117V6.35678H12.6117ZM11.4117 20.3467V22.3467H12.6117V20.3467H11.4117Z" fill="#5D5D5D"/>
</svg>
